<?xml version="1.0" standalone="no"?>
<!DOCTYPE svg PUBLIC "-//W3C//DTD SVG 20010904//EN"
 "http://www.w3.org/TR/2001/REC-SVG-20010904/DTD/svg10.dtd">
<svg version="1.0" xmlns="http://www.w3.org/2000/svg"
 width="50.000000pt" height="50.000000pt" viewBox="0 0 50.000000 50.000000"
 preserveAspectRatio="xMidYMid meet">

<g transform="translate(0.000000,50.000000) scale(0.100000,-0.100000)"
fill="#ffffffff" stroke="none">
<path d="M191 483 c-56 -29 -76 -65 -76 -133 1 -50 8 -73 48 -152 26 -51 56
-104 67 -118 l20 -25 20 25 c41 52 111 205 116 255 12 116 -98 199 -195 148z
m114 -19 c45 -21 69 -73 61 -133 -5 -43 -67 -180 -101 -225 -15 -20 -15 -20
-30 0 -34 43 -98 185 -102 227 -12 107 78 176 172 131z"/>
<path d="M205 395 c-14 -13 -25 -33 -25 -45 0 -11 11 -32 25 -45 13 -14 33
-25 45 -25 27 0 70 43 70 70 0 27 -43 70 -70 70 -11 0 -32 -11 -45 -25z m79
-11 c31 -30 9 -84 -34 -84 -24 0 -50 26 -50 50 0 24 26 50 50 50 10 0 26 -7
34 -16z"/>
<path d="M89 145 c-99 -31 -102 -88 -7 -121 75 -26 261 -26 336 0 97 33 92 90
-11 121 -59 18 -67 18 -67 5 0 -5 15 -12 34 -15 40 -8 96 -40 96 -55 0 -6 -21
-21 -47 -33 -41 -19 -66 -22 -173 -22 -107 0 -132 3 -172 22 -27 12 -48 27
-48 33 0 15 56 47 96 55 19 3 34 10 34 15 0 13 -15 12 -71 -5z"/>
</g>
</svg>
