<?xml version="1.0" standalone="no"?>
<!DOCTYPE svg PUBLIC "-//W3C//DTD SVG 20010904//EN"
 "http://www.w3.org/TR/2001/REC-SVG-20010904/DTD/svg10.dtd">
<svg version="1.0" xmlns="http://www.w3.org/2000/svg"
 width="50.000000pt" height="50.000000pt" viewBox="0 0 50.000000 50.000000"
 preserveAspectRatio="xMidYMid meet">

<g transform="translate(0.000000,50.000000) scale(0.100000,-0.100000)"
fill="#317ac1" stroke="none">
<path d="M207 450 c-16 -13 -40 -20 -66 -20 -40 0 -41 -1 -41 -33 0 -25 -9
-42 -35 -67 l-35 -34 0 -133 0 -133 220 0 220 0 0 133 0 133 -35 34 c-26 25
-35 42 -35 67 0 32 -2 33 -39 33 -23 0 -48 8 -64 20 -14 11 -34 20 -45 20 -10
0 -31 -9 -45 -20z m68 -10 c4 -6 -7 -10 -25 -10 -18 0 -29 4 -25 10 3 6 15 10
25 10 10 0 22 -4 25 -10z m105 -119 c0 -88 0 -89 -32 -113 -32 -24 -34 -24
-66 -10 -29 14 -35 14 -65 0 -31 -15 -34 -15 -65 11 -32 27 -32 29 -32 114 l0
87 130 0 130 0 0 -89z m-280 -33 l0 -42 -22 21 c-21 22 -21 23 -3 43 10 11 20
20 22 20 1 0 3 -19 3 -42z m322 -20 l-22 -22 0 44 0 44 22 -22 22 -22 -22 -22z
m-269 -86 c12 -15 -9 -38 -73 -75 l-30 -18 0 86 0 86 45 -32 c25 -18 51 -39
58 -47z m297 -7 l0 -85 -55 36 c-30 20 -55 40 -55 44 0 6 100 89 108 90 1 0 2
-38 2 -85z m-94 -46 c52 -34 94 -65 94 -70 0 -5 -89 -9 -200 -9 -110 0 -200 3
-200 8 1 10 182 131 198 131 8 1 56 -26 108 -60z"/>
<path d="M195 365 c-52 -51 -15 -135 60 -135 19 0 35 5 35 10 0 6 -13 10 -30
10 -34 0 -70 31 -70 60 0 11 9 29 20 40 11 11 29 20 40 20 11 0 29 -9 40 -20
20 -20 27 -60 11 -60 -5 0 -11 10 -13 21 -7 47 -67 50 -76 5 -6 -30 17 -45 66
-43 45 2 47 3 50 34 7 71 -82 110 -133 58z m71 -46 c10 -17 -13 -36 -27 -22
-12 12 -4 33 11 33 5 0 12 -5 16 -11z"/>
</g>
</svg>
